<?xml version="1.0" encoding="iso-8859-1"?>
<!-- Generator: Adobe Illustrator 19.0.0, SVG Export Plug-In . SVG Version: 6.00 Build 0)  -->
<svg version="1.1" id="Layer_1" xmlns="http://www.w3.org/2000/svg" xmlns:xlink="http://www.w3.org/1999/xlink" x="0px" y="0px"
	 viewBox="0 0 496.2 496.2" style="enable-background:new 0 0 496.2 496.2;" xml:space="preserve">
<path style="fill:#48A1AF;" d="M248.1,0C111.1,0,0,111.1,0,248.1s111.1,248.1,248.1,248.1s248.1-111.1,248.1-248.1S385.1,0,248.1,0z
	"/>
<rect x="205.1" y="324.9" style="fill:#1D2D33;" width="85.8" height="31.5"/>
<g>
	<path style="fill:#E2A379;" d="M287,282.1h-77.8c12.1,36.6,1,53.3,1,53.3l26.9,6.1h22l26.9-6.1C286,335.4,274.9,318.7,287,282.1z"
		/>
	<path style="fill:#E2A379;" d="M247.9,317l-37.7,18.4c0,0,16.8,28.1,37.6,28.1s38.2-28.1,38.2-28.1L247.9,317z"/>
	<path style="fill:#E2A379;" d="M285.9,335.4c0,0-8.9,17.3-38.1,17.3s-37.5-17.3-37.5-17.3s-7,54.7,37.9,54.7
		S285.9,335.4,285.9,335.4z"/>
	<path style="fill:#E2A379;" d="M394.8,382.8c-7.3-27.3-69.9-49.3-147.1-49.3s-139.1,22.1-146.4,49.3c-3.3,12.2-7,35.2-10.1,57.5
		c42.7,34.9,97.4,55.9,156.9,55.9s114.1-21,156.9-55.9C401.8,417.9,398.1,394.9,394.8,382.8z"/>
</g>
<path style="fill:#334D5C;" d="M394.8,382.8c-7.3-27.3-69.9-49.3-147.1-49.3s-139.1,22.1-146.4,49.3c-3.3,12.2-7,35.2-10.1,57.5
	c42.7,34.9,97.4,55.9,156.9,55.9s114.1-21,156.9-55.9C401.8,417.9,398.1,394.9,394.8,382.8z"/>
<g>
	<circle style="fill:#263A44;" cx="317.9" cy="436.3" r="4.7"/>
	<path style="fill:#263A44;" d="M288,425.9v67c1-0.2,2-0.3,3-0.5v-48.2l27.2,5.1l26.5-5v32.4c1-0.4,2-0.8,3-1.3V426H288V425.9z
		 M344.7,441.2l-26.5,5l-27.2-5.1v-12.3h53.7V441.2z"/>
	<path style="fill:#263A44;" d="M148.5,425.9v49.4c1,0.4,2,0.9,3,1.3v-32.4l27.2,5.1l26.5-5v48.2c1,0.2,2,0.3,3,0.5v-67h-59.7V425.9
		z M205.2,441.2l-26.5,5l-27.2-5.1v-12.3h53.7V441.2z"/>
	<circle style="fill:#263A44;" cx="178.3" cy="436.3" r="4.7"/>
	<path style="fill:#263A44;" d="M247.8,333.4c-15.9,0-31.2,0.9-45.5,2.7l45.8,91l45.8-90.9C279.4,334.4,263.9,333.4,247.8,333.4z"/>
	<path style="fill:#263A44;" d="M248.8,407.1c0.3,0.3-43.7-82.2-43.7-82.2l-36,14.2l7,23h32l-11,11L248.8,407.1z"/>
	<path style="fill:#263A44;" d="M327,339.1l-36-14.2c0,0-44,82.5-43.7,82.2l51.7-34l-11-11h32L327,339.1z"/>
</g>
<path style="fill:#3A1D12;" d="M297.9,175.1l-107.6-5.7c-90.7,91.1-35.2,149.9-17.4,178.6c35.8,57.7-3.6,77.7-3.6,77.7l1.9-1
	c0,0,69.8-13.5,43.7-76.2C201.9,317.4,193.8,250.5,297.9,175.1z"/>
<g>
	<path style="fill:#F4B382;" d="M248.1,61.6c-44,0-79.8,21.2-79.8,113.6c0,31.3,5.6,55.8,14,74.7c18.4,41.6,50.3,56.1,65.8,56.1
		s47.3-14.5,65.8-56.1c8.4-18.9,14-43.4,14-74.7C327.9,82.8,292.1,61.6,248.1,61.6z"/>
	<path style="fill:#F4B382;" d="M169.8,178c-7.6,1.3-13.4,4.6-9.1,29.7c4.3,25.2,9.6,26.3,17.3,25L169.8,178z"/>
	<path style="fill:#F4B382;" d="M326.5,178l-8.1,54.8c7.6,1.3,13,0.1,17.3-25C339.9,182.6,334.1,179.3,326.5,178z"/>
</g>
<path style="fill:#3A1D12;" d="M248.1,61.6c-57.3,0-82.7,25.1-82.7,117.5l9.5-7.9c45.8,0,84.9-26.9,113.2-52.3
	c12,33.1,42.7,60.1,42.7,60.1C330.8,86.7,305.4,61.6,248.1,61.6z"/>
<path style="fill:#E5AA17;" d="M319.1,77.9c-12.6-18.6-47.2-34.8-70.8-34.8s-58.4,16.2-71,34.8c-11.8,17.3-14.8,66.7-10.5,66.7
	h162.7C332.4,144.6,330.9,95.3,319.1,77.9z"/>
<path style="fill:#EFC76C;" d="M165.1,138.6l0.8,19.7c0,0,35.4,3.6,82.2,3.6s82.1-3.6,82.1-3.6l0.2-19.7H165.1z"/>
<path style="fill:#E5AA17;" d="M248.1,39.9c-15.8,0-28.7,3.2-28.7,9.8v21.2c0,6.6,12.8,81.2,28.7,81.2c15.8,0,28.7-74.5,28.7-81.2
	V49.8C276.8,43.1,263.9,39.9,248.1,39.9z"/>
<g>
	<path style="fill:#C18D17;" d="M219.5,49.8C219.5,49.7,219.5,49.7,219.5,49.8c-0.1-0.1-0.2-0.1-0.2,0l0,0c-0.7,1.8-1.1,3.5-1.3,5.3
		c-0.2,0.9-0.2,1.8-0.3,2.6c-0.1,0.9-0.1,1.8-0.1,2.6c0,0.9,0,1.8,0.1,2.6c0.1,0.9,0.1,1.8,0.3,2.6c0.2,1.8,0.6,3.5,1.3,5.3l0,0
		c0,0,0,0.1,0.1,0.1s0.1,0,0.1-0.1l0.1-10.6L219.5,49.8z"/>
	<path style="fill:#C18D17;" d="M278.5,57.7c-0.1-0.9-0.1-1.8-0.3-2.6c-0.2-1.8-0.6-3.5-1.3-5.3l0,0c0,0,0-0.1-0.1-0.1
		s-0.1,0-0.1,0.1l-0.1,10.6l0.1,10.6c0,0,0,0.1,0.1,0.1c0,0,0.1,0,0.1-0.1l0,0c0.7-1.8,1.1-3.5,1.3-5.3c0.2-0.9,0.2-1.8,0.3-2.6
		c0.1-0.9,0.1-1.8,0.1-2.6C278.5,59.5,278.5,58.6,278.5,57.7z"/>
</g>
<path style="fill:#F4B21E;" d="M265.1,46.4c0-6.6-7.6-12-17-12s-17,5.4-17,12l-11.3,90.3c0,6.6,18.9,12,28.3,12
	c9.4,0,28.3-5.4,28.3-12L265.1,46.4z"/>
<path style="fill:#E5AA17;" d="M326.9,127.1c-11.7-0.5-45.4,7-78.8,7c-33,0-65.7-7.5-77.1-7c-11.3,0-15,22-15,22s39.7,4.1,92.2,4.1
	s92.1-4.1,92.1-4.1S336.7,127.1,326.9,127.1z"/>
<path style="fill:#C18D17;" d="M309.5,131.1c-6.9,0.4-13.7,0.8-20.6,1.1c-13.8,0.6-27.5,1-41.3,0.9c-13.8,0.1-27.5-0.4-41.3-1
	c-6.9-0.3-13.8-0.7-20.6-1.1c-6.9-0.4-13.7-0.9-20.6-1.4c6.8,1,13.7,1.7,20.5,2.4c6.9,0.6,13.7,1.2,20.6,1.7
	c13.8,0.9,27.6,1.3,41.3,1.4c13.8-0.1,27.6-0.5,41.4-1.4c6.9-0.5,13.8-1,20.6-1.7c6.9-0.7,13.7-1.4,20.5-2.4
	C323.2,130.1,316.4,130.7,309.5,131.1z"/>
<path style="fill:#CC785E;" d="M258.5,257.8c-3-0.4-10.4,2.5-10.4,2.5s-7.6-2.9-10.6-2.5c-4.8,0.7-16.1,4.6-16.1,6
	c0,0,14.2,9.6,26.7,9.6c12.5,0,26.7-9.6,26.7-9.6S263.4,258.5,258.5,257.8z"/>
<path style="fill:#C16952;" d="M254.2,264.4c-2-0.1-4.5,1.7-6.1,1.7c-1.9,0-4.8-1.8-7-1.6c-13.1,0.8-19.6-0.7-19.6-0.7
	s14.2,13.5,26.7,13.5c12.5,0,26.7-13.5,26.7-13.5S267.9,265.2,254.2,264.4z"/>
<g>
	<path style="fill:#3A1D12;" d="M174.8,183.1c-0.4-2.7-0.5-5.2-0.4-7.1c0.1-2.9,0.5-4.7,0.5-4.7l-9.4,3.5c0,1.4,0,2.9,0,4.3
		c0,0,1-0.3,2.8-0.9c-0.1,0-0.2,0.1-0.3,0.1c1.3,2.2,2.9,5.6,4.5,10.5C172.4,188.8,176.1,191.5,174.8,183.1z"/>
	<path style="fill:#3A1D12;" d="M330.7,174.8l-9.3-6.2c0,0,0.4,4.5,0.5,7.4c0.1,2,0,4.4-0.4,7.1c-1.3,8.4,2.3,5.7,2.3,5.7
		c1.5-5,3.2-8.3,4.4-10.5c1.6,0.6,2.5,0.8,2.5,0.8C330.8,177.6,330.8,176.2,330.7,174.8z"/>
</g>
<path style="fill:#E2A379;" d="M247.8,322.9c-28.2,0-37.4,12.4-37.4,12.4l37.8,61.3l37.8-61.3C285.9,335.3,275.9,322.9,247.8,322.9z
	"/>
<path style="fill:#263A44;" d="M255.1,496.1v-89h-14v89c2.3,0.1,4.7,0.1,7,0.1C250.4,496.2,252.8,496.1,255.1,496.1z"/>
<g>
</g>
<g>
</g>
<g>
</g>
<g>
</g>
<g>
</g>
<g>
</g>
<g>
</g>
<g>
</g>
<g>
</g>
<g>
</g>
<g>
</g>
<g>
</g>
<g>
</g>
<g>
</g>
<g>
</g>
</svg>
